PathFileType	4	(X/Y/Z)	D:\Long Term Storage\D'Arcy Smith\Coord16.trc
DataRate	CameraRate	NumFrames	NumMarkers	Units	OrigDataRate	OrigDataStartFrame	OrigNumFrames
120.00	120.00	      146	4	mm	120.00	1212	      4844
Frame#	Time	M1			M2			M3			M4			
		X1	Y1	Z1	X2	Y2	Z2	X3	Y3	Z3	X4	Y4	Z4	

1212	10.092	1031.94690	332.44238	426.67963	1540.81860	335.23145	347.84525							
1213	10.100	1030.72473	331.99557	422.27365	1542.83582	335.97305	354.01187							
1214	10.108	1031.26111	332.00211	415.08426	1544.52576	336.56461	359.23264							
1215	10.117	1031.21680	332.02216	408.16229	1547.10547	336.98993	363.38333							
1216	10.125	1030.19775	331.94998	403.09988	1548.84216	337.97269	367.47726							
1217	10.133	1031.28735	332.35611	394.13495	1550.79504	338.51956	371.51099							
1218	10.142	1031.49097	332.43530	387.40106	1552.69360	339.15732	374.17572							
1219	10.150	1032.90564	333.32837	377.26926	1554.40674	339.63678	376.06744							
1220	10.158	1033.20532	334.02417	368.99500	1556.33337	340.26416	377.21579							
1221	10.167	1032.89404	334.37012	361.51987	1557.47266	340.11124	376.55228							
1222	10.175	1033.73962	335.27414	352.30930	1558.89392	339.42181	374.69208							
1223	10.183	1034.72571	336.38239	342.58813	1559.87329	340.67093	374.93826							
1224	10.192	1036.38977	338.01688	331.68314	1560.84937	340.49509	372.24335							
1225	10.200	1038.20886	340.54880	319.21484	1563.71655	340.96649	372.31403							
1226	10.208	1039.24390	341.96625	309.27832	1563.37488	341.93756	364.73038							
1227	10.217	1040.45471	343.37317	299.44028	1563.15161	342.05463	360.45367							
1228	10.225	1041.92053	345.17886	289.40683	1563.25635	341.98401	355.43457							
1229	10.233	1042.40552	346.62222	279.74240	1563.99402	342.29987	350.02020							
1230	10.242	1043.87048	348.60672	269.88132	1564.16626	342.48523	344.14005							
1231	10.250	1044.82605	350.30096	260.52542	1564.44519	342.76404	337.73016							
1232	10.258	1045.94543	352.09045	251.14035	1566.96802	343.53915	331.25610							
1233	10.267	1046.64832	353.63922	242.09135	1565.68542	343.24139	324.83813							
1234	10.275	1048.23401	355.39905	232.96671	1565.76611	343.57816	317.96640							
1235	10.283	1049.29529	356.90836	224.26482	1564.64966	343.21790	311.29343							
1236	10.292	1050.18274	358.06839	216.11494	1565.75647	343.32870	304.44467							
1237	10.300	1050.72278	358.95493	208.28383	1565.11060	343.40149	297.80826							
1238	10.308	1051.87122	359.85748	200.57205	1565.10608	343.36838	291.25580							
1239	10.317	1052.43921	360.07416	193.67754	1564.88696	343.15375	284.84369							
1240	10.325	1053.02551	360.18268	186.91949	1564.75244	342.68683	278.81250							
1241	10.333	1053.55835	359.93994	180.85272	1564.65466	342.32950	272.83395							
1242	10.342	1054.12402	359.66241	175.21350	1564.06360	341.41168	267.40671							
1243	10.350	1054.48352	359.17862	170.39244	1564.52454	340.88235	262.15234							
1244	10.358	1054.88428	358.57391	166.14845	1565.06799	340.20279	257.86447							
1245	10.367	1055.33069	357.94809	162.91513	1563.26501	338.75983	253.83759							
1246	10.375	1055.62354	357.14691	160.51309	1563.17017	337.59894	250.59457							
1247	10.383	1055.67957	356.12677	159.12784	1563.25183	336.69263	248.26852							
1248	10.392	1055.63232	355.00937	158.63660	1561.91919	335.38773	247.00417							
1249	10.400	1055.53735	353.60812	159.13835	1562.17004	334.12408	246.67133							
1250	10.408	1055.26416	352.19577	160.46864	1563.44861	332.88046	247.23860							
1251	10.417	1054.88098	350.42426	162.27747	1562.71301	330.93546	249.10118							
1252	10.425	1054.12793	348.83453	165.62410	1562.78369	328.90225	251.52728							
1253	10.433	1053.59619	346.98679	168.95552	1562.41736	326.52798	255.19450							
1254	10.442	1052.60803	345.34805	173.75734	1563.75732	324.12668	259.37323							
1255	10.450	1051.84644	343.69763	178.88936	1564.86523	321.43225	264.69754							
1256	10.458	1051.19299	342.07278	184.22794	1565.21021	318.54968	270.65506							
1257	10.467	1050.00024	340.65140	190.81325	1567.23633	315.52734	277.20117							
1258	10.475	1048.91138	339.13477	197.46532	1568.22205	312.41528	284.49237							
1259	10.483	1047.82422	337.79947	204.78354	1569.60559	309.30331	292.55341							
1260	10.492	1046.55920	336.42975	212.32294	1570.81836	305.94919	301.06778							
1261	10.500	1045.23425	335.12469	220.26701	1571.31250	302.48074	310.27679							
1262	10.508	1044.13318	334.06259	228.51004	1573.61218	299.56491	319.74527							
1263	10.517	1042.66931	332.93182	236.61151	1574.46460	295.94440	329.80423							
1264	10.525	1041.54199	332.19528	245.11147	1576.52490	292.92062	339.72745							
1265	10.533	1040.45532	332.00470	253.60916	1577.90137	289.79590	349.83081							
1266	10.542	1039.33752	331.65060	261.69775	1579.28467	286.89920	360.86111							
1267	10.550	1038.31824	331.72159	269.51978	1580.76111	283.93765	372.27335							
1268	10.558	1036.42285	332.16110	276.45438	1582.44360	281.28070	384.05350							
1269	10.567	1035.62659	332.45340	283.89398	1583.96667	279.01297	396.16458							
1270	10.575	1033.99304	332.76971	289.84280	1586.63635	276.87320	409.05222							
1271	10.583	1033.45117	333.22281	295.89828	1587.71582	275.69202	421.46643							
1272	10.592	1031.81360	334.03430	300.35696	1588.88477	275.27509	433.84723							
1273	10.600	1031.16736	334.68777	304.66132	1590.10522	275.28958	446.22098							
1274	10.608	1030.23926	335.73373	307.42517	1591.32495	275.78055	458.29340							
1275	10.617	1029.60840	336.63062	308.84067	1592.21790	276.80161	470.59521							
1276	10.625	1028.96899	337.71069	309.32614	1593.01013	277.70648	482.02826							
1277	10.633	1028.60840	339.03735	308.09415	1594.53149	279.95914	493.22421							
1278	10.642	1028.04895	340.61588	305.25449	1596.21875	281.86996	503.61258							
1279	10.650	1028.37769	342.07697	302.75003	1597.00305	284.55283	513.18640							
1280	10.658	1028.34192	343.85770	298.18622	1598.54834	287.12769	521.99261							
1281	10.667	1028.68127	345.87766	293.16519	1599.75085	289.92313	530.31104							
1282	10.675	1029.07202	348.02228	286.92801	1601.04041	292.75305	537.49927							
1283	10.683	1029.86902	350.55585	280.24655	1602.47742	295.73965	544.40045							
1284	10.692	1030.19080	353.32620	272.56259	1603.79565	298.43109	550.49854							
1285	10.700	1031.55823	356.57306	265.47421	1605.11316	301.14587	556.25610							
1286	10.708	1032.43616	359.99518	257.26596	1606.52026	303.45227	560.93109							
1287	10.717	1034.06128	363.74753	249.74957	1607.94727	305.49515	565.00732							
1288	10.725	1035.61890	367.86481	241.98933	1609.64478	307.81546	568.58539							
1289	10.733	1036.76697	372.24625	233.32767	1610.67371	308.72311	571.56305							
1290	10.742	1038.96887	376.56674	226.16084	1611.88977	310.06326	574.14557							
1291	10.750	1040.60779	381.31381	218.16429	1612.98926	310.53354	576.00702							
1292	10.758	1042.16858	386.19180	210.07462	1614.09106	311.20645	577.36469							
1293	10.767	1044.41345	391.16504	202.97229	1614.92065	311.50980	578.41174							
1294	10.775	1045.96667	396.16055	195.33046	1615.65576	311.64496	579.07062							
1295	10.783	1048.06348	401.17520	188.26642	1616.33179	311.48584	579.29791							
1296	10.792	1050.49622	406.04315	182.05217	1616.83569	311.17184	579.20453							
1297	10.800	1052.05701	410.99844	175.17479	1617.27966	310.63724	578.61871							
1298	10.808	1054.11877	415.76349	168.98714	1617.72473	310.49911	578.01434							
1299	10.817	1056.19739	420.36282	163.13820	1617.67908	309.43192	576.71924							
1300	10.825	1058.47534	424.67343	158.12564	1617.60254	308.18454	574.76624							
1301	10.833	1060.32678	428.94141	152.65813	1617.26233	307.00504	572.78448							
1302	10.842	1061.96021	432.94952	147.24615	1616.70508	305.74384	570.26141							
1303	10.850	1063.76282	436.54236	142.52135	1616.06714	304.52655	567.47449							
1304	10.858	1065.52234	439.61752	138.23808	1615.06323	303.27090	564.22852							
1305	10.867	1067.17798	442.45432	134.29581	1613.97766	302.04404	560.44336							
1306	10.875	1069.24023	444.50635	131.26442	1612.59058	300.88663	556.40710							
1307	10.883	1069.92883	446.28500	127.36244	1611.19287	299.75949	551.78632							
1308	10.892	1071.68665	447.31171	124.88558	1609.53601	298.61493	546.76874							
1309	10.900	1072.65833	448.00070	122.14468	1607.82349	297.52390	541.24884							
1310	10.908	1073.55994	448.13693	119.95985	1606.05554	296.56207	535.16345							
1311	10.917	1074.15479	447.67282	117.69102	1603.97595	295.70813	528.79932							
1312	10.925	1074.71973	446.40274	116.55370	1601.64026	294.79117	521.83112							
1313	10.933	1075.10974	444.59177	115.85683	1599.50586	294.14740	514.15857							
1314	10.942	1075.34985	441.91751	115.79964	1597.19531	293.75583	506.12787							
1315	10.950	1075.47961	438.61182	116.36986	1594.12781	293.53214	497.53345							
1316	10.958	1075.85779	434.53641	118.35490	1592.10291	293.12939	487.49387							
1317	10.967	1075.79309	429.30017	120.50521	1590.01660	293.21960	477.82092							
1318	10.975	1075.30225	423.47916	124.07130	1587.82251	293.23245	466.50018							
1319	10.983	1074.92480	416.79697	128.35783	1586.32935	293.75177	455.30243							
1320	10.992	1074.03040	409.45258	134.22101	1583.34302	295.89386	443.44720							
1321	11.000	1073.21118	401.23364	140.82053	1582.82898	295.64355	430.72137							
1322	11.008	1072.40564	392.47220	148.82964	1581.14514	296.63724	417.69821							
1323	11.017	1071.52612	383.28806	158.01248	1579.69238	297.28683	403.83627							
1324	11.025	1070.07520	373.54291	168.65747	1579.24255	298.84393	389.91855							
1325	11.033	1069.98584	364.04816	179.96248	1577.83667	301.11801	375.20969							
1326	11.042	1069.26025	354.28000	192.84778	1577.16028	304.20203	360.30920							
1327	11.050	1068.54919	344.67233	206.90594	1576.60486	307.47775	345.25299							
1328	11.058	1068.14526	335.35983	222.05196	1576.47937	311.54410	330.59286							
1329	11.067	1068.38025	326.60474	237.95689	1577.09534	315.64597	315.62805							
1330	11.075	1067.81665	318.43527	254.79694	1577.78088	320.42667	300.34628							
1331	11.083	1067.31775	310.68808	272.75037	1578.29272	325.14435	285.65375							
1332	11.092	1066.52185	303.31659	292.04541	1578.49060	330.95770	270.53983							
1333	11.100	1067.03894	297.81656	309.75461	1579.59583	335.79938	256.08218							
1334	11.108	1066.37000	292.52051	330.56769	1580.74146	342.57025	242.22885							
1335	11.117	1066.31079	288.43524	349.63638	1581.54272	348.97043	228.44661							
1336	11.125	1066.88269	285.39429	370.14139	1582.97302	354.92444	215.18475							
1337	11.133	1066.86292	283.70700	390.12805	1582.58813	362.47989	202.08559							
1338	11.142	1066.96704	282.75211	409.79434	1583.63464	369.60889	189.85065							
1339	11.150	1067.18176	282.89743	428.35675	1584.66565	376.49670	177.99290							
1340	11.158	1067.48181	283.65295	446.40250	1585.98157	384.00803	167.07303							
1341	11.167	1067.71375	284.99875	463.21289	1587.40186	391.29529	156.54152							
1342	11.175	1066.54016	286.12546	481.29456	1588.39709	398.61389	146.94395							
1343	11.183	1067.07031	288.47314	495.79208	1589.67786	405.75674	137.81067							
1344	11.192	1066.40881	291.72430	507.88843	1590.74182	413.10892	129.16847							
1345	11.200	1066.78320	295.09256	520.80945	1592.09290	420.09747	121.61817							
1346	11.208	1066.73645	298.22278	531.64294	1592.82483	426.60822	114.34026							
1347	11.217	1067.45251	301.43262	540.43091	1593.97058	432.71481	107.95308							
1348	11.225	1067.98022	304.72226	547.25879	1596.19165	438.19724	102.28590							
1349	11.233	1068.16162	307.02295	553.85132	1595.90271	443.35022	97.28504							
1350	11.242	1067.83435	309.05853	559.03131	1597.23669	447.97867	93.23589							
1351	11.250	1067.56042	310.63895	562.65784	1597.88342	451.73999	89.70296							
1352	11.258	1067.36902	311.57794	563.64447	1599.20313	454.68579	87.53722							
1353	11.267	1067.47974	311.94720	561.77332	1599.47046	457.00113	85.26474							
1354	11.275	1065.37378	310.96521	563.69269	1600.14880	458.24432	84.20029							
1355	11.283	1066.09875	310.39767	557.99866	1600.68958	458.79251	83.90223							
1356	11.292	1065.82715	309.30487	553.04169	1601.16821	458.20932	84.32598							
1357	11.300	1065.20410	307.82785	547.89789	1601.18152	457.05850	85.22359							
